<svg xmlns="http://www.w3.org/2000/svg" viewBox="0 0 256 256" role="img" aria-label="Lewd Hot Dog Stand logo">
  <rect width="256" height="256" rx="30" fill="#1b0d1c"/>
  <rect x="32" y="36" width="192" height="184" rx="26" fill="#2d1232" stroke="#a0298f" stroke-width="5"/>
  <path d="M64 135c0-30 24-54 54-54h20c30 0 54 24 54 54s-24 54-54 54h-20c-30 0-54-24-54-54Z" fill="#f2b652"/>
  <path d="M80 135c0-21 17-38 38-38h20c21 0 38 17 38 38s-17 38-38 38h-20c-21 0-38-17-38-38Z" fill="#d64066"/>
  <path d="M89 134c15-18 28 16 43-1 16-18 29 16 44-2" fill="none" stroke="#ffe166" stroke-width="8" stroke-linecap="round"/>
  <path d="M86 66c9-13 24-11 31 1 7-12 22-14 31-1 13 19-17 40-31 52-14-12-44-33-31-52Z" fill="#ff5bb7"/>
  <text x="128" y="213" text-anchor="middle" font-family="Arial, sans-serif" font-size="20" font-weight="800" fill="#ffd1ef">SAUCY DOGS</text>
</svg>
